<?xml version="1.0" standalone="no"?>
<!DOCTYPE svg PUBLIC "-//W3C//DTD SVG 20010904//EN"
 "http://www.w3.org/TR/2001/REC-SVG-20010904/DTD/svg10.dtd">
<svg version="1.0" xmlns="http://www.w3.org/2000/svg"
 width="500.000000pt" height="500.000000pt" viewBox="0 0 500.000000 500.000000"
 preserveAspectRatio="xMidYMid meet">

<g transform="translate(0.000000,500.000000) scale(0.100000,-0.100000)"
fill="#000000" stroke="none">
<path d="M1682 3318 c6 -18 28 -21 28 -4 0 9 -7 16 -16 16 -9 0 -14 -5 -12
-12z"/>
<path d="M1422 3308 c-7 -7 -12 -18 -12 -25 0 -7 -5 -13 -11 -13 -7 0 0 -9 14
-20 14 -11 30 -20 35 -20 6 0 13 -10 15 -22 4 -22 4 -22 6 -2 0 12 8 27 16 34
32 26 12 80 -30 80 -12 0 -26 -5 -33 -12z"/>
<path d="M1343 3253 c9 -2 23 -2 30 0 6 3 -1 5 -18 5 -16 0 -22 -2 -12 -5z"/>
<path d="M1245 3240 c-27 -7 -27 -8 -5 -8 14 0 39 4 55 8 27 7 27 8 5 8 -14 0
-38 -4 -55 -8z"/>
<path d="M1530 3240 c8 -5 20 -10 25 -10 6 0 3 5 -5 10 -8 5 -19 10 -25 10 -5
0 -3 -5 5 -10z"/>
<path d="M1045 3233 c-14 -11 -39 -56 -26 -48 32 19 -2 -39 -107 -186 -126
-174 -118 -168 -206 -171 -23 -1 -25 -3 -12 -10 9 -5 16 -19 16 -32 0 -12 9
-41 20 -64 22 -44 23 -74 13 -225 -6 -90 -8 -98 -29 -103 -15 -4 -23 -15 -26
-35 -8 -54 37 -89 84 -65 13 7 30 10 38 8 12 -4 13 -2 3 9 -15 16 -17 49 -3
49 6 0 11 -11 11 -25 1 -14 2 -29 3 -35 0 -5 20 -23 42 -40 60 -44 62 -66 13
-147 -51 -83 -48 -81 -59 -63 -7 11 -10 12 -10 2 0 -7 -7 -20 -16 -29 -9 -10
-13 -25 -9 -42 5 -23 -6 -37 -82 -113 -79 -78 -90 -86 -106 -73 -17 12 -18 24
-11 135 4 75 11 123 18 126 6 2 45 -7 85 -21 41 -14 76 -23 78 -21 2 2 -32 16
-76 31 -44 14 -82 32 -84 38 -2 7 18 56 45 110 27 55 45 97 41 94 -4 -3 -28
-46 -53 -96 -24 -50 -49 -91 -56 -91 -6 0 -31 25 -54 55 -23 30 -45 55 -47 55
-6 0 -3 -4 49 -70 19 -25 36 -52 37 -60 15 -133 6 -275 -19 -275 -18 0 -39
-32 -40 -61 0 -27 30 -54 61 -54 18 0 59 -35 157 -133 73 -73 130 -136 127
-139 -4 -4 -2 -16 5 -27 11 -22 54 -29 65 -11 3 5 13 7 23 4 13 -4 14 -3 4 4
-7 5 -19 21 -27 35 -10 20 -10 29 -1 44 25 36 77 133 73 133 -3 0 -24 -33 -48
-73 -68 -116 -65 -117 -219 38 -117 117 -129 133 -115 145 10 8 15 25 13 42
-2 23 11 42 87 118 49 49 97 90 106 90 11 0 37 -36 74 -100 31 -55 58 -100 61
-100 6 0 -5 21 -63 122 -25 43 -42 82 -38 88 3 5 27 7 53 5 52 -6 47 0 -8 9
-55 10 -65 42 -28 101 16 25 34 45 41 43 7 -3 44 -84 83 -182 l72 -178 -19
-44 c-11 -24 -26 -44 -34 -44 -7 0 -15 -4 -17 -9 -2 -5 -56 1 -123 15 -65 13
-124 23 -129 21 -6 -2 46 -14 114 -28 107 -21 126 -28 135 -47 11 -26 50 -30
63 -6 8 15 14 14 66 -2 46 -14 53 -20 38 -25 -24 -9 -38 -47 -24 -61 19 -19
50 2 59 40 8 35 11 37 48 36 22 -1 30 1 17 3 -13 3 -26 11 -29 19 -6 15 15
103 27 117 9 10 100 -105 100 -127 0 -8 -11 -16 -27 -19 l-28 -4 27 -2 c19 -1
30 -9 39 -30 8 -17 16 -26 19 -21 3 5 16 11 28 12 28 4 292 -216 292 -244 0
-10 7 -21 15 -24 20 -8 47 15 42 35 -1 9 41 68 96 134 55 65 97 120 95 122 -2
2 -48 -50 -102 -116 -95 -114 -116 -134 -116 -106 0 6 -5 4 -11 -6 -9 -15 -27
-3 -147 99 -94 79 -137 122 -138 137 -1 12 -5 30 -9 39 -9 23 114 254 135 253
19 -1 30 14 30 43 0 54 27 14 59 -86 18 -59 37 -115 42 -124 13 -25 12 -28
-11 -28 -28 0 -44 -42 -21 -53 13 -6 21 -32 30 -98 7 -50 15 -88 18 -86 2 3
-1 42 -7 86 -10 64 -10 84 0 96 18 22 30 18 30 -10 0 -15 7 -39 15 -56 13 -24
19 -28 34 -19 14 7 20 6 25 -5 8 -21 36 -19 35 3 0 10 -3 12 -6 5 -2 -7 -9
-13 -15 -13 -6 0 -7 7 -4 16 4 10 2 13 -6 8 -8 -5 -9 -1 -4 12 36 91 49 151
33 157 -6 3 -2 6 10 6 12 1 25 6 29 13 4 7 3 8 -4 4 -17 -11 -14 35 3 58 17
23 18 35 5 56 -9 13 -11 13 -20 0 -5 -8 -10 -25 -10 -38 0 -15 -5 -22 -12 -19
-7 2 -12 11 -10 19 1 8 -4 34 -13 57 -15 45 -11 71 12 71 23 0 54 -20 48 -31
-4 -5 0 -9 8 -9 8 0 26 -9 40 -20 14 -11 28 -20 32 -20 4 0 -4 9 -19 21 -24
19 -36 59 -17 59 5 0 11 14 15 31 4 20 13 33 27 36 14 4 17 8 9 13 -15 9 -5
80 11 80 6 0 9 8 8 18 -2 9 4 40 13 67 9 28 22 69 28 93 6 23 15 40 20 37 6
-4 10 1 10 9 0 28 22 28 53 0 l32 -29 -29 32 c-34 38 -29 60 16 66 l33 4 -35
1 c-47 2 -60 16 -49 50 34 102 59 184 59 195 0 18 62 57 91 57 13 0 19 4 13 8
-6 4 -16 17 -23 30 -9 16 -21 22 -47 22 -28 0 -36 5 -45 28 -6 15 -9 53 -6 84
4 42 1 58 -9 62 -7 3 -16 0 -20 -5 -3 -6 -20 -17 -38 -25 l-31 -13 40 2 40 2
3 -52 c3 -49 1 -53 -34 -80 -24 -17 -39 -24 -41 -16 -2 6 -28 30 -58 53 -30
23 -52 47 -49 54 3 7 -2 18 -10 25 -12 10 -21 10 -44 0 l-29 -12 21 -21 c11
-11 29 -19 38 -18 20 4 61 -26 65 -46 2 -6 -6 -12 -17 -12 -23 0 -25 -17 -6
-55 9 -17 16 -22 21 -15 10 16 63 5 87 -17 22 -20 23 -64 2 -140 -9 -32 -19
-72 -21 -90 l-5 -32 -56 25 c-30 13 -57 22 -59 20 -2 -2 21 -14 51 -27 48 -19
56 -27 56 -48 0 -21 -11 -32 -59 -58 -63 -35 -86 -35 -102 1 -9 21 -10 21 -6
0 8 -40 -13 -52 -98 -55 -79 -2 -79 -2 -91 27 -9 21 -9 35 -2 49 18 34 112
130 128 130 8 1 21 4 28 8 14 10 16 47 2 47 -5 0 -10 7 -10 15 0 12 -5 10 -24
-6 -13 -11 -22 -28 -20 -37 6 -23 -97 -137 -117 -130 -8 3 -25 38 -37 77 -28
87 -21 106 37 97 35 -5 35 -5 7 6 -33 12 -66 43 -66 61 0 7 -4 17 -9 23 -5 5
-11 27 -15 49 -4 29 -3 34 3 19 9 -20 13 -21 51 -11 39 11 42 10 66 -18 l26
-30 -19 30 c-34 56 -38 62 -85 126 -52 68 -65 74 -22 9 14 -21 23 -44 19 -49
-10 -17 -43 -13 -49 7 -18 64 -16 77 12 107 25 26 27 34 19 61 -9 30 -41 54
-72 54 -7 0 -16 8 -18 18 -4 15 -5 15 -6 -2 0 -11 -8 -27 -17 -37 -14 -16 -25
-11 -164 71 -171 102 -190 112 -190 106 0 -2 74 -48 165 -101 91 -53 165 -103
165 -111 0 -10 -14 -14 -49 -14 -28 0 -52 -4 -55 -8 -3 -5 18 -7 47 -4 49 4
53 2 75 -27 12 -17 31 -31 41 -31 15 0 22 -11 29 -47 6 -26 9 -50 7 -52 -2 -2
-23 -5 -46 -7 -40 -4 -41 -3 -35 24 3 15 -8 -1 -24 -35 -32 -68 -52 -79 -69
-35 -10 26 -11 26 -6 -8 3 -19 2 -29 -1 -22 -3 6 -15 12 -27 12 -32 1 -147 77
-147 98 0 20 93 116 103 106 8 -9 38 16 32 26 -3 4 -14 10 -25 13 -11 3 -18 1
-14 -4 3 -5 -18 -34 -47 -64 -39 -41 -57 -54 -71 -49 -10 3 -25 0 -33 -6 -9
-8 -33 -10 -62 -7 l-48 6 45 -12 c25 -6 50 -18 57 -26 8 -11 12 -60 13 -149 0
-132 0 -132 -25 -144 -23 -10 -30 -6 -87 48 -35 32 -64 66 -66 75 -2 11 28 41
82 84 48 38 86 70 86 72 0 6 -22 -8 -65 -43 -22 -18 -53 -37 -68 -43 -15 -6
-27 -17 -27 -26 0 -8 -7 -15 -15 -15 -8 0 -15 9 -15 20 0 11 5 20 10 20 7 0 7
6 0 19 -14 27 -13 99 2 114 6 7 23 12 37 11 19 -1 20 0 4 3 -45 9 -45 23 3
169 26 76 54 144 63 151 9 7 21 17 27 22 7 5 15 7 18 3 4 -3 4 1 0 11 -5 13
-1 17 17 18 21 1 20 2 -6 9 -16 5 -39 11 -50 14 -11 4 -24 3 -30 -1z m-43
-211 c-26 -76 -54 -147 -62 -158 -8 -12 -41 -31 -73 -42 -47 -18 -59 -19 -63
-8 -6 15 226 346 242 346 1 0 -19 -62 -44 -138z m-64 -226 l4 -28 -52 7 c-34
5 -55 3 -65 -5 -12 -10 -15 -10 -15 1 0 15 86 59 110 56 8 -1 16 -15 18 -31z
m275 -28 c12 -6 52 -31 89 -55 37 -25 71 -42 76 -39 4 2 8 -4 9 -15 1 -12 -28
-44 -88 -95 -83 -70 -93 -76 -115 -65 -24 10 -24 13 -24 140 0 123 2 134 28
140 2 1 13 -4 25 -11z m193 -164 c-3 -8 6 -46 20 -86 26 -70 26 -94 5 -150
l-10 -27 -98 33 c-97 33 -98 33 -104 70 -6 36 -5 37 84 111 83 68 117 85 103
49z m-382 -63 c60 -60 68 -73 62 -96 -6 -24 -10 -26 -49 -23 -41 3 -42 4 -45
41 -3 39 -33 110 -52 122 -11 7 -4 25 8 25 4 0 38 -31 76 -69z m-236 -50 c13
-37 1 -85 -21 -89 -14 -3 -17 4 -17 35 0 45 9 83 20 83 5 0 13 -13 18 -29z
m22 -90 c0 -6 -4 -13 -10 -16 -5 -3 -10 1 -10 9 0 9 5 16 10 16 6 0 10 -4 10
-9z m285 -1 c7 -12 -40 -72 -49 -63 -3 4 -6 21 -6 40 0 28 3 33 24 33 14 0 28
-5 31 -10z m228 -36 c87 -28 88 -29 83 -57 -11 -56 -49 -124 -65 -120 -9 3
-46 46 -83 97 -50 68 -63 94 -55 104 5 7 15 11 21 9 6 -2 51 -17 99 -33z
m-199 10 c13 -5 16 -25 16 -119 0 -108 -11 -152 -25 -103 -4 13 -20 53 -37 90
l-30 66 28 36 c16 20 30 36 31 36 1 0 8 -3 17 -6z m129 -96 c37 -51 67 -101
67 -112 0 -12 -31 -53 -72 -96 l-73 -75 72 69 c40 39 76 67 80 62 4 -4 2 -11
-5 -15 -7 -4 -10 -15 -6 -24 7 -20 -21 -121 -41 -140 -8 -8 -11 -17 -8 -20 3
-3 -3 -28 -13 -56 -15 -41 -15 -52 -4 -66 7 -8 11 -18 8 -21 -6 -5 -33 34 -60
85 -21 42 -10 70 30 72 l27 2 -27 4 c-16 2 -28 9 -28 16 0 6 -8 20 -19 31 -16
18 -19 44 -24 199 -8 219 -3 223 96 85z m233 45 c-11 -12 -27 13 -20 32 7 17
8 17 17 -3 6 -12 7 -25 3 -29z m511 -14 c-3 -23 -10 -45 -15 -48 -5 -3 -35
-50 -67 -103 -31 -54 -60 -98 -63 -98 -2 0 -1 33 3 73 9 96 0 83 -14 -20 -7
-59 -16 -88 -30 -102 -21 -21 -37 -12 -27 15 4 10 -3 23 -18 35 -14 11 -39 38
-57 62 l-33 42 41 -38 41 -39 -29 82 c-16 45 -29 85 -29 90 0 12 66 30 108 30
18 0 42 -6 53 -12 18 -11 23 -10 40 12 24 28 68 58 88 59 10 1 12 -9 8 -40z
m-513 1 c20 -7 26 -16 26 -40 0 -28 -3 -30 -35 -30 -37 0 -42 9 -29 58 7 26 5
25 38 12z m64 -99 c0 -4 0 -17 2 -31 1 -23 2 -23 10 -5 6 14 9 -5 9 -58 1 -58
5 -79 15 -83 12 -4 36 -53 36 -70 0 -2 -11 -4 -25 -4 -20 0 -25 5 -26 28 -1
20 -2 22 -6 7 -3 -11 -8 -24 -12 -28 -8 -8 -181 167 -181 184 0 6 4 8 9 4 6
-3 15 4 21 16 17 30 109 70 132 56 9 -6 16 -13 16 -16z m377 -134 c-13 -44
-21 -56 -41 -61 -14 -4 -29 -4 -34 -1 -11 7 41 94 56 95 7 0 15 10 19 23 3 12
9 17 11 10 3 -6 -2 -36 -11 -66z m-454 -53 c45 -45 60 -67 55 -80 -5 -14 -14
-16 -53 -10 -25 3 -66 6 -91 6 l-45 0 5 38 c8 54 33 109 51 109 9 0 44 -28 78
-63z m424 -34 c4 -6 4 -18 1 -27 -5 -12 -9 -13 -21 -3 -8 7 -15 19 -15 26 0
16 26 19 35 4z m-447 -66 c104 -9 105 -15 32 -157 -78 -149 -89 -153 -161 -56
l-51 69 20 57 c11 32 23 65 27 75 4 11 1 18 -12 22 -10 3 2 3 27 1 25 -2 78
-7 118 -11z m-355 -241 c7 -37 -5 -43 -34 -17 -17 15 -17 19 -2 47 17 34 26
27 36 -30z m87 -53 c0 -5 -4 -10 -10 -10 -5 0 -10 5 -10 10 0 6 5 10 10 10 6
0 10 -4 10 -10z"/>
<path d="M1862 2230 c0 -14 2 -19 5 -12 2 6 2 18 0 25 -3 6 -5 1 -5 -13z"/>
<path d="M1173 3223 c9 -2 23 -2 30 0 6 3 -1 5 -18 5 -16 0 -22 -2 -12 -5z"/>
<path d="M1640 3200 c8 -5 22 -9 30 -9 10 0 8 3 -5 9 -27 12 -43 12 -25 0z"/>
<path d="M1690 3186 c0 -3 23 -12 50 -21 28 -9 50 -23 50 -30 0 -7 -36 -34
-80 -60 -44 -26 -80 -49 -80 -52 0 -2 3 -2 8 0 4 2 40 23 80 46 49 29 79 40
93 36 11 -4 26 -1 34 5 16 13 105 4 105 -11 0 -5 7 -9 16 -9 9 0 14 7 12 16
-2 13 -17 18 -62 20 -42 1 -62 7 -68 18 -5 9 -22 16 -37 16 -16 0 -48 7 -71
15 -46 16 -50 17 -50 11z"/>
<path d="M1471 3164 c0 -11 3 -14 6 -6 3 7 2 16 -1 19 -3 4 -6 -2 -5 -13z"/>
<path d="M805 3025 c-131 -104 -183 -140 -192 -133 -7 6 -24 7 -38 4 -20 -5
-25 -13 -25 -36 0 -16 6 -33 14 -37 17 -10 33 -248 17 -257 -14 -9 -3 -33 19
-39 14 -4 17 0 15 22 -2 18 13 49 52 104 30 43 53 81 50 83 -2 3 -28 -33 -58
-78 l-54 -82 -8 118 c-8 110 -7 119 11 136 13 12 24 15 33 9 8 -5 19 -9 24 -8
6 0 -2 7 -17 15 -16 8 -28 16 -28 19 0 2 62 52 138 111 201 159 245 194 235
193 -4 0 -89 -65 -188 -144z"/>
<path d="M1081 3142 c-1 -20 72 -297 76 -286 1 5 -15 74 -36 154 -22 80 -40
139 -40 132z"/>
<path d="M1185 3070 c43 -47 83 -89 89 -95 5 -5 0 4 -12 20 -11 17 -51 59 -89
95 l-68 65 80 -85z"/>
<path d="M1350 3129 c0 -24 23 -21 28 4 2 10 -3 17 -12 17 -10 0 -16 -9 -16
-21z"/>
<path d="M1570 3136 c0 -8 4 -17 9 -20 11 -7 33 18 24 27 -12 12 -33 7 -33 -7z"/>
<path d="M1481 3124 c0 -11 3 -14 6 -6 3 7 2 16 -1 19 -3 4 -6 -2 -5 -13z"/>
<path d="M1492 3080 c0 -14 2 -19 5 -12 2 6 2 18 0 25 -3 6 -5 1 -5 -13z"/>
<path d="M1841 3085 c1 -19 18 -51 18 -35 0 8 -4 22 -9 30 -5 8 -9 11 -9 5z"/>
<path d="M2232 3029 c2 -6 8 -10 13 -10 5 0 11 4 13 10 2 6 -4 11 -13 11 -9 0
-15 -5 -13 -11z"/>
<path d="M1960 3000 c0 -5 5 -10 11 -10 5 0 7 5 4 10 -3 6 -8 10 -11 10 -2 0
-4 -4 -4 -10z"/>
<path d="M1638 2923 c6 -2 18 -2 25 0 6 3 1 5 -13 5 -14 0 -19 -2 -12 -5z"/>
<path d="M1688 2913 c6 -2 18 -2 25 0 6 3 1 5 -13 5 -14 0 -19 -2 -12 -5z"/>
<path d="M1743 2903 c9 -2 23 -2 30 0 6 3 -1 5 -18 5 -16 0 -22 -2 -12 -5z"/>
<path d="M1975 2895 c-39 -17 -21 -18 25 0 19 7 28 14 20 14 -8 0 -28 -6 -45
-14z"/>
<path d="M1321 2890 c0 -8 4 -22 9 -30 12 -18 12 -2 0 25 -6 13 -9 15 -9 5z"/>
<path d="M1798 2893 c6 -2 18 -2 25 0 6 3 1 5 -13 5 -14 0 -19 -2 -12 -5z"/>
<path d="M1486 2855 c-9 -26 -7 -32 5 -12 6 10 9 21 6 23 -2 3 -7 -2 -11 -11z"/>
<path d="M2260 2854 c0 -8 5 -12 10 -9 6 3 10 10 10 16 0 5 -4 9 -10 9 -5 0
-10 -7 -10 -16z"/>
<path d="M1876 2804 c-4 -14 -5 -28 -3 -31 3 -2 8 8 11 23 4 14 5 28 3 31 -3
2 -8 -8 -11 -23z"/>
<path d="M526 2674 c-20 -75 -35 -138 -33 -140 2 -2 21 57 41 132 20 75 35
138 33 140 -2 2 -21 -57 -41 -132z"/>
<path d="M1351 2800 c0 -8 4 -22 9 -30 12 -18 12 -2 0 25 -6 13 -9 15 -9 5z"/>
<path d="M1752 2784 c4 -21 22 -23 26 -1 2 10 -3 17 -13 17 -10 0 -15 -6 -13
-16z"/>
<path d="M1861 2744 c0 -11 3 -14 6 -6 3 7 2 16 -1 19 -3 4 -6 -2 -5 -13z"/>
<path d="M2423 2735 c0 -8 4 -15 9 -15 4 0 8 7 8 15 0 8 -4 15 -8 15 -5 0 -9
-7 -9 -15z"/>
<path d="M2274 2729 c-10 -17 13 -36 27 -22 12 12 4 33 -11 33 -5 0 -12 -5
-16 -11z"/>
<path d="M1750 2625 c17 -25 33 -45 36 -45 3 0 -9 20 -26 45 -17 25 -33 45
-36 45 -3 0 9 -20 26 -45z"/>
<path d="M1826 2634 c-4 -14 -5 -28 -3 -31 3 -2 8 8 11 23 4 14 5 28 3 31 -3
2 -8 -8 -11 -23z"/>
<path d="M1965 2630 c-3 -6 1 -7 9 -4 18 7 21 14 7 14 -6 0 -13 -4 -16 -10z"/>
<path d="M1898 2594 c-38 -20 -36 -28 2 -9 17 9 30 18 30 20 0 7 -1 6 -32 -11z"/>
<path d="M2222 2581 c13 -16 42 -51 65 -78 45 -53 45 -62 4 -64 -17 -1 -10 -4
19 -10 26 -5 48 -5 53 0 11 11 -1 34 -13 26 -4 -3 -38 31 -75 75 -37 44 -69
80 -72 80 -2 0 6 -13 19 -29z"/>
<path d="M2356 2591 c-4 -5 -2 -20 3 -33 7 -16 10 -18 10 -6 1 9 6 18 13 20 6
2 8 10 4 16 -9 14 -23 16 -30 3z"/>
<path d="M1715 2560 c11 -5 27 -9 35 -9 9 0 8 4 -5 9 -11 5 -27 9 -35 9 -9 0
-8 -4 5 -9z"/>
<path d="M2352 2505 c0 -16 2 -22 5 -12 2 9 2 23 0 30 -3 6 -5 -1 -5 -18z"/>
<path d="M476 2494 c-4 -14 -5 -28 -3 -31 3 -2 8 8 11 23 4 14 5 28 3 31 -3 2
-8 -8 -11 -23z"/>
<path d="M515 2411 c-41 -83 -60 -110 -76 -113 -30 -4 -47 -33 -33 -56 10 -15
74 -27 72 -13 -3 28 8 39 50 54 44 16 40 16 -30 1 -18 -4 -28 -2 -28 5 0 6 25
61 55 121 30 61 53 110 50 110 -3 0 -29 -49 -60 -109z"/>
<path d="M1870 2505 c14 -8 30 -14 35 -14 6 0 -1 6 -15 14 -14 8 -29 14 -35
14 -5 0 1 -6 15 -14z"/>
<path d="M630 2490 c6 -11 13 -20 16 -20 2 0 0 9 -6 20 -6 11 -13 20 -16 20
-2 0 0 -9 6 -20z"/>
<path d="M2470 2495 c0 -8 5 -15 10 -15 6 0 10 7 10 15 0 8 -4 15 -10 15 -5 0
-10 -7 -10 -15z"/>
<path d="M1821 2485 c1 -19 18 -51 18 -35 0 8 -4 22 -9 30 -5 8 -9 11 -9 5z"/>
<path d="M665 2430 c9 -16 18 -30 21 -30 2 0 -2 14 -11 30 -9 17 -18 30 -21
30 -2 0 2 -13 11 -30z"/>
<path d="M461 2434 c0 -11 3 -14 6 -6 3 7 2 16 -1 19 -3 4 -6 -2 -5 -13z"/>
<path d="M1910 2420 c0 -5 5 -10 10 -10 6 0 10 5 10 10 0 6 -4 10 -10 10 -5 0
-10 -4 -10 -10z"/>
<path d="M2218 2423 c6 -2 18 -2 25 0 6 3 1 5 -13 5 -14 0 -19 -2 -12 -5z"/>
<path d="M446 2384 c-4 -14 -5 -28 -3 -31 3 -2 8 8 11 23 4 14 5 28 3 31 -3 2
-8 -8 -11 -23z"/>
<path d="M431 2324 c0 -11 3 -14 6 -6 3 7 2 16 -1 19 -3 4 -6 -2 -5 -13z"/>
<path d="M625 2320 c-13 -6 -15 -9 -5 -9 8 0 22 4 30 9 18 12 2 12 -25 0z"/>
<path d="M2297 2315 c-4 -8 -3 -16 1 -19 13 -8 35 11 28 23 -10 15 -23 14 -29
-4z"/>
<path d="M2195 2281 c30 -32 85 -77 85 -68 0 3 -26 26 -57 53 -40 33 -49 38
-28 15z"/>
<path d="M2440 2290 c0 -15 5 -20 18 -18 9 2 17 10 17 18 0 8 -8 16 -17 18
-13 2 -18 -3 -18 -18z"/>
<path d="M751 2260 c0 -8 4 -24 9 -35 5 -13 9 -14 9 -5 0 8 -4 24 -9 35 -5 13
-9 14 -9 5z"/>
<path d="M2389 2239 l-24 -20 28 17 c15 9 27 18 27 20 0 8 -8 4 -31 -17z"/>
<path d="M431 2194 c0 -11 3 -14 6 -6 3 7 2 16 -1 19 -3 4 -6 -2 -5 -13z"/>
<path d="M777 2170 c6 -38 31 -111 32 -95 0 6 -8 37 -19 70 -11 33 -17 44 -13
25z"/>
<path d="M2292 2173 c-1 -17 5 -26 22 -33 38 -14 41 -29 6 -41 -27 -10 -31
-15 -28 -43 2 -25 8 -32 30 -34 19 -2 30 3 38 17 6 12 17 21 25 21 23 0 18 13
-15 45 -19 18 -30 39 -30 56 0 20 -6 28 -23 31 -18 4 -23 0 -25 -19z"/>
<path d="M441 2154 c0 -11 3 -14 6 -6 3 7 2 16 -1 19 -3 4 -6 -2 -5 -13z"/>
<path d="M2466 2162 c-3 -6 -1 -14 5 -17 15 -10 25 3 12 16 -7 7 -13 7 -17 1z"/>
<path d="M2230 2135 c-14 -8 -20 -14 -15 -14 6 0 21 6 35 14 14 8 21 14 15 14
-5 0 -21 -6 -35 -14z"/>
<path d="M451 2114 c0 -11 3 -14 6 -6 3 7 2 16 -1 19 -3 4 -6 -2 -5 -13z"/>
<path d="M2150 2100 c-19 -11 -30 -19 -25 -19 6 0 26 8 45 19 19 11 31 19 25
19 -5 0 -26 -8 -45 -19z"/>
<path d="M3366 2085 c-19 -20 -20 -26 -3 -49 26 -36 84 4 61 42 -15 23 -38 26
-58 7z"/>
<path d="M4037 2076 c-44 -20 -46 -22 -27 -34 19 -12 20 -23 20 -242 l0 -230
-25 -10 c-14 -5 -25 -12 -25 -15 0 -3 34 -5 75 -5 71 0 99 11 55 23 -18 5 -20
14 -20 77 0 56 4 76 17 85 14 10 24 2 73 -59 76 -96 75 -93 43 -110 -27 -14
-23 -15 70 -16 63 0 96 4 92 10 -3 6 -14 10 -24 10 -11 0 -52 42 -105 107
l-86 106 47 35 c27 19 66 43 88 53 l40 19 -95 -2 c-52 0 -84 -3 -70 -5 26 -5
50 -20 50 -32 0 -7 -126 -101 -135 -101 -2 0 -6 80 -7 178 l-3 178 -48 -20z"/>
<path d="M461 2074 c0 -11 3 -14 6 -6 3 7 2 16 -1 19 -3 4 -6 -2 -5 -13z"/>
<path d="M2061 2071 l-20 -18 23 -13 c13 -7 28 -10 33 -7 12 8 113 -80 113
-98 0 -7 -14 -18 -30 -25 -17 -7 -33 -17 -36 -22 -3 -5 12 0 35 11 34 18 41
19 41 6 0 -12 3 -12 20 2 27 23 25 43 -2 43 -26 1 -128 91 -128 113 0 23 -26
27 -49 8z"/>
<path d="M2756 2081 c5 -5 18 -11 29 -13 19 -3 20 -11 20 -253 l0 -250 -27 -3
c-16 -2 -28 -8 -28 -13 0 -5 93 -9 228 -9 l227 0 23 86 c13 48 21 89 18 91 -2
2 -22 -22 -44 -54 -65 -95 -69 -97 -185 -101 -88 -4 -102 -2 -114 14 -16 22
-19 444 -3 475 6 11 21 19 35 19 13 0 27 5 30 10 4 6 -34 10 -106 10 -68 0
-109 -4 -103 -9z"/>
<path d="M471 2034 c0 -11 3 -14 6 -6 3 7 2 16 -1 19 -3 4 -6 -2 -5 -13z"/>
<path d="M2008 2043 c7 -3 16 -2 19 1 4 3 -2 6 -13 5 -11 0 -14 -3 -6 -6z"/>
<path d="M481 1994 c0 -11 3 -14 6 -6 3 7 2 16 -1 19 -3 4 -6 -2 -5 -13z"/>
<path d="M2062 1980 c0 -14 2 -19 5 -12 2 6 2 18 0 25 -3 6 -5 1 -5 -13z"/>
<path d="M1950 1970 c0 -5 5 -10 10 -10 6 0 10 5 10 10 0 6 -4 10 -10 10 -5 0
-10 -4 -10 -10z"/>
<path d="M491 1954 c0 -11 3 -14 6 -6 3 7 2 16 -1 19 -3 4 -6 -2 -5 -13z"/>
<path d="M2051 1934 c0 -11 3 -14 6 -6 3 7 2 16 -1 19 -3 4 -6 -2 -5 -13z"/>
<path d="M2518 1899 c-50 -43 -62 -65 -28 -54 19 6 20 2 20 -119 0 -70 5 -136
11 -149 11 -25 47 -47 75 -47 19 0 91 36 99 51 12 19 -3 22 -27 5 -30 -21 -61
-20 -82 3 -14 15 -16 37 -14 137 l3 119 53 3 c36 2 52 7 52 17 0 10 -16 15
-52 17 -49 3 -53 5 -58 30 l-5 28 -47 -41z"/>
<path d="M501 1914 c0 -11 3 -14 6 -6 3 7 2 16 -1 19 -3 4 -6 -2 -5 -13z"/>
<path d="M2283 1906 c22 -23 22 -33 -4 -41 l-21 -7 21 -19 c19 -18 21 -31 21
-145 0 -124 0 -125 -25 -134 -14 -5 -25 -12 -25 -15 0 -3 34 -5 75 -5 72 0 99
12 54 23 -20 5 -21 11 -19 159 1 84 1 158 1 164 -1 6 -13 14 -28 17 -16 3 -37
9 -48 13 -19 8 -19 7 -2 -10z"/>
<path d="M2042 1890 c0 -14 2 -19 5 -12 2 6 2 18 0 25 -3 6 -5 1 -5 -13z"/>
<path d="M511 1874 c0 -11 3 -14 6 -6 3 7 2 16 -1 19 -3 4 -6 -2 -5 -13z"/>
<path d="M3365 1872 c-37 -17 -38 -19 -20 -29 18 -10 20 -24 23 -123 4 -123
-1 -160 -23 -160 -7 0 -17 -4 -20 -10 -4 -6 22 -10 69 -10 44 0 76 4 76 10 0
6 -9 10 -20 10 -19 0 -20 7 -20 165 0 182 2 177 -65 147z"/>
<path d="M3595 1873 c-52 -21 -52 -21 -27 -39 21 -14 22 -23 22 -140 0 -124 0
-125 -25 -134 -14 -5 -25 -12 -25 -15 0 -3 34 -5 75 -5 71 0 99 11 55 23 -19
5 -20 14 -20 120 0 64 3 123 6 132 8 19 55 45 82 45 11 0 31 -9 46 -21 26 -20
26 -22 26 -150 0 -122 -1 -129 -20 -129 -11 0 -20 -4 -20 -10 0 -6 32 -10 75
-10 43 0 75 4 75 10 0 6 -7 10 -15 10 -26 0 -35 37 -35 150 0 122 -6 142 -50
165 -45 23 -96 19 -136 -11 l-34 -26 0 26 c0 30 -2 30 -55 9z"/>
<path d="M2105 1870 c-3 -6 1 -7 9 -4 18 7 21 14 7 14 -6 0 -13 -4 -16 -10z"/>
<path d="M2017 1846 c-21 -22 -22 -35 -1 -43 24 -9 39 12 28 38 -9 20 -11 21
-27 5z"/>
<path d="M1602 1845 c-1 -13 66 -153 67 -140 0 6 -15 42 -34 80 -18 39 -33 66
-33 60z"/>
<path d="M2200 1828 c0 -7 -7 -26 -15 -42 -17 -33 -13 -59 8 -50 8 3 13 22 13
54 0 28 -1 50 -3 50 -2 0 -3 -6 -3 -12z"/>
<path d="M1940 1785 c-14 -8 -20 -14 -15 -14 6 0 21 6 35 14 14 8 21 14 15 14
-5 0 -21 -6 -35 -14z"/>
<path d="M2005 1733 c-4 -23 -17 -46 -33 -59 -24 -20 -25 -24 -14 -46 11 -19
20 -23 43 -20 24 4 29 9 29 33 0 15 -5 31 -11 35 -7 4 -9 22 -4 50 8 54 0 59
-10 7z"/>
<path d="M975 1720 c9 -16 18 -30 21 -30 2 0 -2 14 -11 30 -9 17 -18 30 -21
30 -2 0 2 -13 11 -30z"/>
<path d="M648 1723 c6 -2 18 -2 25 0 6 3 1 5 -13 5 -14 0 -19 -2 -12 -5z"/>
<path d="M698 1713 c6 -2 18 -2 25 0 6 3 1 5 -13 5 -14 0 -19 -2 -12 -5z"/>
<path d="M1568 1633 c12 -2 32 -2 45 0 12 2 2 4 -23 4 -25 0 -35 -2 -22 -4z"/>
<path d="M1478 1623 c12 -2 30 -2 40 0 9 3 -1 5 -23 4 -22 0 -30 -2 -17 -4z"/>
<path d="M2060 1600 c8 -5 22 -9 30 -9 10 0 8 3 -5 9 -27 12 -43 12 -25 0z"/>
<path d="M1061 1569 c142 -189 180 -248 170 -266 -11 -22 4 -60 30 -76 22 -14
66 -1 74 22 4 13 17 21 38 24 l32 4 -32 1 c-26 2 -33 7 -38 30 -5 26 -9 28
-48 25 l-42 -3 -93 130 c-52 71 -99 133 -105 137 -7 4 0 -9 14 -28z"/>
<path d="M2122 1591 c-10 -6 -10 -10 2 -21 19 -15 46 -6 46 15 0 16 -27 20
-48 6z"/>
<path d="M1630 1540 c0 -5 5 -10 11 -10 5 0 7 5 4 10 -3 6 -8 10 -11 10 -2 0
-4 -4 -4 -10z"/>
<path d="M1371 1514 c0 -11 3 -14 6 -6 3 7 2 16 -1 19 -3 4 -6 -2 -5 -13z"/>
<path d="M1361 1474 c0 -11 3 -14 6 -6 3 7 2 16 -1 19 -3 4 -6 -2 -5 -13z"/>
<path d="M2034 1447 c-6 -17 2 -37 16 -37 15 0 19 29 5 40 -12 10 -16 9 -21
-3z"/>
<path d="M1346 1424 c-4 -14 -5 -28 -3 -31 3 -2 8 8 11 23 4 14 5 28 3 31 -3
2 -8 -8 -11 -23z"/>
<path d="M1722 1405 c0 -16 2 -22 5 -12 2 9 2 23 0 30 -3 6 -5 -1 -5 -18z"/>
<path d="M1331 1364 c0 -11 3 -14 6 -6 3 7 2 16 -1 19 -3 4 -6 -2 -5 -13z"/>
<path d="M1010 1362 c8 -5 26 -13 40 -16 17 -5 20 -4 10 2 -8 5 -26 13 -40 16
-17 5 -20 4 -10 -2z"/>
<path d="M1863 1343 c9 -2 25 -2 35 0 9 3 1 5 -18 5 -19 0 -27 -2 -17 -5z"/>
<path d="M1803 1333 c9 -2 23 -2 30 0 6 3 -1 5 -18 5 -16 0 -22 -2 -12 -5z"/>
<path d="M1663 1313 c9 -2 23 -2 30 0 6 3 -1 5 -18 5 -16 0 -22 -2 -12 -5z"/>
<path d="M1588 1303 c12 -2 30 -2 40 0 9 3 -1 5 -23 4 -22 0 -30 -2 -17 -4z"/>
<path d="M1513 1293 c9 -2 23 -2 30 0 6 3 -1 5 -18 5 -16 0 -22 -2 -12 -5z"/>
<path d="M1433 1283 c9 -2 23 -2 30 0 6 3 -1 5 -18 5 -16 0 -22 -2 -12 -5z"/>
</g>
</svg>
